{
  "accessors": [
    {
      "bufferView": 2,
      "componentType": 5126,
      "count": 2451,
      "max": [
        0.05024304240942001,
        0.1098497286438942,
        0.015224654227495193
      ],
      "min": [
        -0.05024304986000061,
        -0.10970892012119293,
        -0.012190235778689384
      ],
      "type": "VEC3"
    },
    {
      "bufferView": 2,
      "byteOffset": 29412,
      "componentType": 5126,
      "count": 2451,
      "max": [
        0.9999998807907104,
        1.0,
        1.0
      ],
      "min": [
        -0.9999998807907104,
        -0.9990218281745911,
        -1.0
      ],
      "type": "VEC3"
    },
    {
      "bufferView": 3,
      "componentType": 5126,
      "count": 2451,
      "max": [
        0.9189508557319641,
        0.9999999403953552,
        0.9990337491035461,
        1.0
      ],
      "min": [
        -0.918434202671051,
        -0.9999999403953552,
        -0.9999986886978149,
        1.0
      ],
      "type": "VEC4"
    },
    {
      "bufferView": 1,
      "componentType": 5126,
      "count": 2451,
      "max": [
        0.9922534227371216,
        0.9970703125
      ],
      "min": [
        0.0029296875,
        0.0029296875
      ],
      "type": "VEC2"
    },
    {
      "bufferView": 1,
      "byteOffset": 19608,
      "componentType": 5126,
      "count": 2451,
      "max": [
        0.9922534227371216,
        0.9970703125
      ],
      "min": [
        0.0029296875,
        0.0029296875
      ],
      "type": "VEC2"
    },
    {
      "bufferView": 1,
      "byteOffset": 39216,
      "componentType": 5126,
      "count": 2451,
      "max": [
        0.9922534227371216,
        0.9970703125
      ],
      "min": [
        0.0029296875,
        0.0029296875
      ],
      "type": "VEC2"
    },
    {
      "bufferView": 0,
      "componentType": 5125,
      "count": 12000,
      "type": "SCALAR"
    },
    {
      "bufferView": 2,
      "byteOffset": 58824,
      "componentType": 5126,
      "count": 398,
      "max": [
        0.17559006810188293,
        0.12124423682689667,
        0.022843532264232635
      ],
      "min": [
        -0.17559006810188293,
        -0.08801838755607605,
        -0.0006927431677468121
      ],
      "type": "VEC3"
    },
    {
      "bufferView": 2,
      "byteOffset": 63600,
      "componentType": 5126,
      "count": 398,
      "max": [
        0.9821624159812927,
        1.0,
        1.0
      ],
      "min": [
        -0.9821624159812927,
        -1.0,
        -1.0
      ],
      "type": "VEC3"
    },
    {
      "bufferView": 3,
      "byteOffset": 39216,
      "componentType": 5126,
      "count": 398,
      "max": [
        1.0,
        1.0,
        0.9997104406356812,
        1.0
      ],
      "min": [
        -1.0,
        -1.0,
        -0.999711275100708,
        1.0
      ],
      "type": "VEC4"
    },
    {
      "bufferView": 1,
      "byteOffset": 58824,
      "componentType": 5126,
      "count": 398,
      "max": [
        0.9961934685707092,
        0.9957732558250427
      ],
      "min": [
        0.00390625,
        0.00390625
      ],
      "type": "VEC2"
    },
    {
      "bufferView": 1,
      "byteOffset": 62008,
      "componentType": 5126,
      "count": 398,
      "max": [
        0.9961934685707092,
        0.9957732558250427
      ],
      "min": [
        0.00390625,
        0.00390625
      ],
      "type": "VEC2"
    },
    {
      "bufferView": 1,
      "byteOffset": 65192,
      "componentType": 5126,
      "count": 398,
      "max": [
        0.9961934685707092,
        0.9957732558250427
      ],
      "min": [
        0.00390625,
        0.00390625
      ],
      "type": "VEC2"
    },
    {
      "bufferView": 0,
      "byteOffset": 48000,
      "componentType": 5125,
      "count": 1500,
      "type": "SCALAR"
    },
    {
      "bufferView": 2,
      "byteOffset": 68376,
      "componentType": 5126,
      "count": 204,
      "max": [
        0.15959574282169342,
        0.028534017503261566,
        0.25793492794036865
      ],
      "min": [
        -0.047078896313905716,
        -0.02825888991355896,
        2.2794790766056394e-06
      ],
      "type": "VEC3"
    },
    {
      "bufferView": 2,
      "byteOffset": 70824,
      "componentType": 5126,
      "count": 204,
      "max": [
        0.9995797872543335,
        0.9999923706054688,
        1.0
      ],
      "min": [
        -0.9859522581100464,
        -0.9999924898147583,
        -1.0
      ],
      "type": "VEC3"
    },
    {
      "bufferView": 3,
      "byteOffset": 45584,
      "componentType": 5126,
      "count": 204,
      "max": [
        1.0,
        0.9927451014518738,
        1.0,
        1.0
      ],
      "min": [
        -1.0,
        -0.9590010643005371,
        -0.15520259737968445,
        1.0
      ],
      "type": "VEC4"
    },
    {
      "bufferView": 1,
      "byteOffset": 68376,
      "componentType": 5126,
      "count": 204,
      "max": [
        0.99609375,
        0.806583821773529
      ],
      "min": [
        0.00390625,
        0.00390625
      ],
      "type": "VEC2"
    },
    {
      "bufferView": 1,
      "byteOffset": 70008,
      "componentType": 5126,
      "count": 204,
      "max": [
        0.99609375,
        0.806583821773529
      ],
      "min": [
        0.00390625,
        0.00390625
      ],
      "type": "VEC2"
    },
    {
      "bufferView": 1,
      "byteOffset": 71640,
      "componentType": 5126,
      "count": 204,
      "max": [
        0.99609375,
        0.806583821773529
      ],
      "min": [
        0.00390625,
        0.00390625
      ],
      "type": "VEC2"
    },
    {
      "bufferView": 0,
      "byteOffset": 54000,
      "componentType": 5125,
      "count": 900,
      "type": "SCALAR"
    },
    {
      "bufferView": 2,
      "byteOffset": 73272,
      "componentType": 5126,
      "count": 204,
      "max": [
        0.15959574282169342,
        0.028534017503261566,
        0.25793492794036865
      ],
      "min": [
        -0.047078896313905716,
        -0.02825888991355896,
        2.2794790766056394e-06
      ],
      "type": "VEC3"
    },
    {
      "bufferView": 2,
      "byteOffset": 75720,
      "componentType": 5126,
      "count": 204,
      "max": [
        0.9995797872543335,
        0.9999923706054688,
        1.0
      ],
      "min": [
        -0.9859522581100464,
        -0.9999924898147583,
        -1.0
      ],
      "type": "VEC3"
    },
    {
      "bufferView": 3,
      "byteOffset": 48848,
      "componentType": 5126,
      "count": 204,
      "max": [
        1.0,
        0.9927451014518738,
        1.0,
        1.0
      ],
      "min": [
        -1.0,
        -0.9590010643005371,
        -0.15520259737968445,
        1.0
      ],
      "type": "VEC4"
    },
    {
      "bufferView": 1,
      "byteOffset": 73272,
      "componentType": 5126,
      "count": 204,
      "max": [
        0.99609375,
        0.806583821773529
      ],
      "min": [
        0.00390625,
        0.00390625
      ],
      "type": "VEC2"
    },
    {
      "bufferView": 1,
      "byteOffset": 74904,
      "componentType": 5126,
      "count": 204,
      "max": [
        0.99609375,
        0.806583821773529
      ],
      "min": [
        0.00390625,
        0.00390625
      ],
      "type": "VEC2"
    },
    {
      "bufferView": 1,
      "byteOffset": 76536,
      "componentType": 5126,
      "count": 204,
      "max": [
        0.99609375,
        0.806583821773529
      ],
      "min": [
        0.00390625,
        0.00390625
      ],
      "type": "VEC2"
    },
    {
      "bufferView": 0,
      "byteOffset": 57600,
      "componentType": 5125,
      "count": 900,
      "type": "SCALAR"
    },
    {
      "bufferView": 2,
      "byteOffset": 78168,
      "componentType": 5126,
      "count": 224,
      "max": [
        0.11038615554571152,
        0.03255942463874817,
        0.13568079471588135
      ],
      "min": [
        -0.11038616299629211,
        -0.03255942463874817,
        -0.13568077981472015
      ],
      "type": "VEC3"
    },
    {
      "bufferView": 2,
      "byteOffset": 80856,
      "componentType": 5126,
      "count": 224,
      "max": [
        1.0,
        0.9999932050704956,
        1.0
      ],
      "min": [
        -0.9999933242797852,
        -0.999993085861206,
        -1.0
      ],
      "type": "VEC3"
    },
    {
      "bufferView": 3,
      "byteOffset": 52112,
      "componentType": 5126,
      "count": 224,
      "max": [
        1.0,
        0.9592227935791016,
        0.15401506423950195,
        1.0
      ],
      "min": [
        -1.0,
        -1.0,
        -1.0,
        1.0
      ],
      "type": "VEC4"
    },
    {
      "bufferView": 1,
      "byteOffset": 78168,
      "componentType": 5126,
      "count": 224,
      "max": [
        0.99609375,
        0.8104076981544495
      ],
      "min": [
        0.00390625,
        0.00390625
      ],
      "type": "VEC2"
    },
    {
      "bufferView": 1,
      "byteOffset": 79960,
      "componentType": 5126,
      "count": 224,
      "max": [
        0.99609375,
        0.8104076981544495
      ],
      "min": [
        0.00390625,
        0.00390625
      ],
      "type": "VEC2"
    },
    {
      "bufferView": 0,
      "byteOffset": 61200,
      "componentType": 5125,
      "count": 996,
      "type": "SCALAR"
    }
  ],
  "asset": {
    "extras": {
      "author": "shuvalov.di (https://sketchfab.com/shuvalov.di)",
      "license": "CC-BY-NC-SA-4.0 (http://creativecommons.org/licenses/by-nc-sa/4.0/)",
      "source": "https://sketchfab.com/3d-models/books-with-magnifier-cc153ce6258b4e538d9fc7da5b5d0fe4",
      "title": "Books with magnifier"
    },
    "generator": "Sketchfab-15.23.0",
    "version": "2.0"
  },
  "bufferViews": [
    {
      "buffer": 0,
      "byteLength": 65184,
      "name": "floatBufferViews",
      "target": 34963
    },
    {
      "buffer": 0,
      "byteLength": 81752,
      "byteOffset": 65184,
      "byteStride": 8,
      "name": "floatBufferViews",
      "target": 34962
    },
    {
      "buffer": 0,
      "byteLength": 83544,
      "byteOffset": 146936,
      "byteStride": 12,
      "name": "floatBufferViews",
      "target": 34962
    },
    {
      "buffer": 0,
      "byteLength": 55696,
      "byteOffset": 230480,
      "byteStride": 16,
      "name": "floatBufferViews",
      "target": 34962
    }
  ],
  "buffers": [
    {
      "byteLength": 286176,
      "uri": "scene.bin"
    }
  ],
  "extensionsUsed": [
    "KHR_materials_transmission"
  ],
  "images": [
    {
      "uri": "textures/Magnifier_baseColor.png"
    },
    {
      "uri": "textures/Magnifier_metallicRoughness.png"
    },
    {
      "uri": "textures/Magnifier_normal.png"
    },
    {
      "uri": "textures/Magnifier_transmission.png"
    },
    {
      "uri": "textures/Open_book_Mat_baseColor.jpeg"
    },
    {
      "uri": "textures/Open_book_Mat_metallicRoughness.png"
    },
    {
      "uri": "textures/Open_book_Mat_normal.png"
    },
    {
      "uri": "textures/Book_3_Mat_baseColor.jpeg"
    },
    {
      "uri": "textures/Book_3_Mat_metallicRoughness.png"
    },
    {
      "uri": "textures/Book_3_Mat_normal.png"
    },
    {
      "uri": "textures/Book_2_Mat_baseColor.jpeg"
    },
    {
      "uri": "textures/Book_2_Mat_metallicRoughness.png"
    },
    {
      "uri": "textures/Book_2_Mat_normal.png"
    },
    {
      "uri": "textures/Book_1_Mat_baseColor.jpeg"
    },
    {
      "uri": "textures/Book_1_Mat_metallicRoughness.png"
    },
    {
      "uri": "textures/Book_1_Mat_normal.png"
    }
  ],
  "materials": [
    {
      "alphaMode": "BLEND",
      "doubleSided": true,
      "extensions": {
        "KHR_materials_transmission": {
          "transmissionFactor": 1.0,
          "transmissionTexture": {
            "index": 3
          }
        }
      },
      "name": "Magnifier",
      "normalTexture": {
        "index": 2
      },
      "pbrMetallicRoughness": {
        "baseColorFactor": [
          0.9117889721365602,
          0.9784904701140582,
          1.0,
          1.0
        ],
        "baseColorTexture": {
          "index": 0
        },
        "metallicRoughnessTexture": {
          "index": 1
        }
      }
    },
    {
      "doubleSided": true,
      "name": "Open_book_Mat",
      "normalTexture": {
        "index": 6
      },
      "occlusionTexture": {
        "index": 5,
        "strength": 0.7
      },
      "pbrMetallicRoughness": {
        "baseColorTexture": {
          "index": 4
        },
        "metallicRoughnessTexture": {
          "index": 5
        }
      }
    },
    {
      "doubleSided": true,
      "name": "Book_3_Mat",
      "normalTexture": {
        "index": 9
      },
      "occlusionTexture": {
        "index": 8
      },
      "pbrMetallicRoughness": {
        "baseColorTexture": {
          "index": 7
        },
        "metallicRoughnessTexture": {
          "index": 8
        }
      }
    },
    {
      "doubleSided": true,
      "name": "Book_2_Mat",
      "normalTexture": {
        "index": 12
      },
      "occlusionTexture": {
        "index": 11
      },
      "pbrMetallicRoughness": {
        "baseColorTexture": {
          "index": 10
        },
        "metallicRoughnessTexture": {
          "index": 11
        }
      }
    },
    {
      "doubleSided": true,
      "name": "Book_1_Mat",
      "normalTexture": {
        "index": 15
      },
      "occlusionTexture": {
        "index": 14
      },
      "pbrMetallicRoughness": {
        "baseColorTexture": {
          "index": 13
        },
        "metallicRoughnessTexture": {
          "index": 14
        }
      }
    }
  ],
  "meshes": [
    {
      "name": "Magnifier_Magnifier_0",
      "primitives": [
        {
          "attributes": {
            "NORMAL": 1,
            "POSITION": 0,
            "TANGENT": 2,
            "TEXCOORD_0": 3,
            "TEXCOORD_1": 4,
            "TEXCOORD_2": 5
          },
          "indices": 6,
          "material": 0,
          "mode": 4
        }
      ]
    },
    {
      "name": "Open_book_Open_book_Mat_0",
      "primitives": [
        {
          "attributes": {
            "NORMAL": 8,
            "POSITION": 7,
            "TANGENT": 9,
            "TEXCOORD_0": 10,
            "TEXCOORD_1": 11,
            "TEXCOORD_2": 12
          },
          "indices": 13,
          "material": 1,
          "mode": 4
        }
      ]
    },
    {
      "name": "Book_3_Book_3_Mat_0",
      "primitives": [
        {
          "attributes": {
            "NORMAL": 15,
            "POSITION": 14,
            "TANGENT": 16,
            "TEXCOORD_0": 17,
            "TEXCOORD_1": 18,
            "TEXCOORD_2": 19
          },
          "indices": 20,
          "material": 2,
          "mode": 4
        }
      ]
    },
    {
      "name": "Book_2_Book_2_Mat_0",
      "primitives": [
        {
          "attributes": {
            "NORMAL": 22,
            "POSITION": 21,
            "TANGENT": 23,
            "TEXCOORD_0": 24,
            "TEXCOORD_1": 25,
            "TEXCOORD_2": 26
          },
          "indices": 27,
          "material": 3,
          "mode": 4
        }
      ]
    },
    {
      "name": "Book_1_Book_1_Mat_0",
      "primitives": [
        {
          "attributes": {
            "NORMAL": 29,
            "POSITION": 28,
            "TANGENT": 30,
            "TEXCOORD_0": 31,
            "TEXCOORD_1": 32
          },
          "indices": 33,
          "material": 4,
          "mode": 4
        }
      ]
    }
  ],
  "nodes": [
    {
      "children": [
        1
      ],
      "matrix": [
        1.0,
        0.0,
        0.0,
        0.0,
        0.0,
        2.220446049250313e-16,
        -1.0,
        0.0,
        0.0,
        1.0,
        2.220446049250313e-16,
        0.0,
        0.0,
        0.0,
        0.0,
        1.0
      ],
      "name": "Sketchfab_model"
    },
    {
      "children": [
        2
      ],
      "matrix": [
        0.009999999776482582,
        0.0,
        0.0,
        0.0,
        0.0,
        0.0,
        0.009999999776482582,
        0.0,
        0.0,
        -0.009999999776482582,
        0.0,
        0.0,
        0.0,
        0.0,
        0.0,
        1.0
      ],
      "name": "c9d6e07887b84362ac62a44c44bd2b40.fbx"
    },
    {
      "children": [
        3,
        5,
        7,
        9,
        11
      ],
      "name": "RootNode"
    },
    {
      "children": [
        4
      ],
      "matrix": [
        85.57047171988613,
        -0.0295612505097409,
        51.74643461890527,
        0.0,
        51.743371461881196,
        -1.0406776133719653,
        -85.56600084065403,
        0.0,
        0.5638079836719064,
        99.99458806331006,
        -0.8752168219593652,
        0.0,
        -1.0176211595535278,
        3.2944843769073486,
        -4.696717739105225,
        1.0
      ],
      "name": "Magnifier"
    },
    {
      "mesh": 0,
      "name": "Magnifier_Magnifier_0"
    },
    {
      "children": [
        6
      ],
      "matrix": [
        -99.99999999999241,
        1.2246465878873718e-14,
        3.8941437775530106e-05,
        0.0,
        3.894143777553e-05,
        7.549789982075339e-06,
        99.99999999999213,
        0.0,
        -2.9277502948264183e-12,
        99.9999999999997,
        -7.549789970973109e-06,
        0.0,
        0.0,
        0.0,
        -4.722959995269775,
        1.0
      ],
      "name": "Open_book"
    },
    {
      "mesh": 1,
      "name": "Open_book_Open_book_Mat_0"
    },
    {
      "children": [
        8
      ],
      "matrix": [
        29.45654970121933,
        -1.6464937157129118e-13,
        -68.39227314581068,
        0.0,
        1.0326946577580171e-05,
        -74.4660491943351,
        4.447815716500259e-06,
        0.0,
        -68.3922731458099,
        -1.1244059069467851e-05,
        -29.456549701219007,
        0.0,
        7.947041988372803,
        6.977478981018066,
        24.66627311706543,
        1.0
      ],
      "name": "Book_3"
    },
    {
      "mesh": 2,
      "name": "Book_3_Book_3_Mat_0"
    },
    {
      "children": [
        10
      ],
      "matrix": [
        -34.67643951481804,
        -3.244472950414641e-06,
        65.89945494046373,
        0.0,
        65.89945494046368,
        -5.966231482488583e-06,
        34.676439514817744,
        0.0,
        3.7690273415046256e-06,
        74.46604919433562,
        5.649508513153192e-06,
        0.0,
        19.832157135009766,
        0.0,
        9.659503936767578,
        1.0
      ],
      "name": "Book_2"
    },
    {
      "mesh": 3,
      "name": "Book_2_Book_2_Mat_0"
    },
    {
      "children": [
        12
      ],
      "matrix": [
        10.75331845179148,
        5.476942067477412e-13,
        73.68553106700081,
        0.0,
        -1.1126202992594455e-05,
        -74.4660491943351,
        1.6237060789380443e-06,
        0.0,
        73.68553106699997,
        -1.1244055698757195e-05,
        -10.753318451791365,
        0.0,
        1.2451293468475342,
        2.42533278465271,
        17.90616226196289,
        1.0
      ],
      "name": "Book_1"
    },
    {
      "mesh": 4,
      "name": "Book_1_Book_1_Mat_0"
    }
  ],
  "samplers": [
    {
      "magFilter": 9729,
      "minFilter": 9987,
      "wrapS": 10497,
      "wrapT": 10497
    }
  ],
  "scene": 0,
  "scenes": [
    {
      "name": "Sketchfab_Scene",
      "nodes": [
        0
      ]
    }
  ],
  "textures": [
    {
      "sampler": 0,
      "source": 0
    },
    {
      "sampler": 0,
      "source": 1
    },
    {
      "sampler": 0,
      "source": 2
    },
    {
      "sampler": 0,
      "source": 3
    },
    {
      "sampler": 0,
      "source": 4
    },
    {
      "sampler": 0,
      "source": 5
    },
    {
      "sampler": 0,
      "source": 6
    },
    {
      "sampler": 0,
      "source": 7
    },
    {
      "sampler": 0,
      "source": 8
    },
    {
      "sampler": 0,
      "source": 9
    },
    {
      "sampler": 0,
      "source": 10
    },
    {
      "sampler": 0,
      "source": 11
    },
    {
      "sampler": 0,
      "source": 12
    },
    {
      "sampler": 0,
      "source": 13
    },
    {
      "sampler": 0,
      "source": 14
    },
    {
      "sampler": 0,
      "source": 15
    }
  ]
}
